# xmcd
#
# Track frame offsets:
#	150
#	16295
#	30122
#	52259
#	69388
#	84189
#	100324
#	120418
#	132190
#	152636
#	165010
#	183179
#	195998
#
# Disc length: 2916 seconds
#
# Revision: 1
# Processed by: cddbd v1.5.2PL0 Copyright (c) Steve Scherf et al.
# Submitted via: audiograbber 1.83.01
#
DISCID=8c0b620d
DTITLE=Марьяж "Декорации" - Блудные дети
DYEAR=2007
DGENRE=Blues
TTITLE0=Тьма
TTITLE1=Покойники
TTITLE2=Не остынь
TTITLE3=Оксана
TTITLE4=В королевстве убитых душ
TTITLE5=Богема
TTITLE6=Вечность
TTITLE7=Превратили
TTITLE8=Танки и шумеры
TTITLE9=Спой, душа
TTITLE10=Блудные дети
TTITLE11=Дура
TTITLE12=О бессилии
EXTD=
EXTT0=
EXTT1=
EXTT2=
EXTT3=
EXTT4=
EXTT5=
EXTT6=
EXTT7=
EXTT8=
EXTT9=
EXTT10=
EXTT11=
EXTT12=
PLAYORDER=
